<svg xmlns="http://www.w3.org/2000/svg" xmlns:xlink="http://www.w3.org/1999/xlink" width="300" zoomAndPan="magnify" viewBox="0 0 224.87999 225" height="300" preserveAspectRatio="xMidYMid meet" version="1.0"><defs><filter x="0%" y="0%" width="100%" height="100%" id="9a06cb9438"><feColorMatrix values="0 0 0 0 1 0 0 0 0 1 0 0 0 0 1 0 0 0 1 0" color-interpolation-filters="sRGB"/></filter><clipPath id="240301a7d8"><path d="M 0 0.0585938 L 224.761719 0.0585938 L 224.761719 224.9375 L 0 224.9375 Z M 0 0.0585938 " clip-rule="nonzero"/></clipPath><clipPath id="59854f50a5"><path d="M 22.488281 91 L 206.140625 91 L 206.140625 200 L 22.488281 200 Z M 22.488281 91 " clip-rule="nonzero"/></clipPath><clipPath id="5c77a68741"><path d="M 22.488281 5 L 84 5 L 84 93 L 22.488281 93 Z M 22.488281 5 " clip-rule="nonzero"/></clipPath><clipPath id="60df224174"><path d="M 83 0.191406 L 145 0.191406 L 145 93 L 83 93 Z M 83 0.191406 " clip-rule="nonzero"/></clipPath><clipPath id="e2fed74a06"><path d="M 144 5 L 206.140625 5 L 206.140625 93 L 144 93 Z M 144 5 " clip-rule="nonzero"/></clipPath><clipPath id="732efbd70e"><path d="M 22.488281 198 L 206.140625 198 L 206.140625 224.929688 L 22.488281 224.929688 Z M 22.488281 198 " clip-rule="nonzero"/></clipPath><clipPath id="f6f587c2c5"><path d="M 44 100 L 185 100 L 185 224.894531 L 44 224.894531 Z M 44 100 " clip-rule="nonzero"/></clipPath><clipPath id="6b5af0184c"><path d="M 44 104 L 185 104 L 185 224.894531 L 44 224.894531 Z M 44 104 " clip-rule="nonzero"/></clipPath><mask id="110bbee3ac"><g filter="url(#9a06cb9438)"><rect x="-22.487999" width="269.855988" fill="#000000" y="-22.5" height="270" fill-opacity="0.298"/></g></mask><clipPath id="11a2ce801e"><path d="M 1 0.40625 L 140.460938 0.40625 L 140.460938 120.894531 L 1 120.894531 Z M 1 0.40625 " clip-rule="nonzero"/></clipPath><clipPath id="b5898c97af"><rect x="0" width="141" y="0" height="121"/></clipPath><clipPath id="c60cd9e089"><path d="M 44 116 L 161 116 L 161 224.894531 L 44 224.894531 Z M 44 116 " clip-rule="nonzero"/></clipPath><clipPath id="d798b5a48f"><path d="M 42 98.960938 L 186.269531 98.960938 L 186.269531 224.894531 L 42 224.894531 Z M 42 98.960938 " clip-rule="nonzero"/></clipPath></defs><g clip-path="url(#240301a7d8)"><path fill="#ffffff" d="M 0 0.0585938 L 224.878906 0.0585938 L 224.878906 232.4375 L 0 232.4375 Z M 0 0.0585938 " fill-opacity="1" fill-rule="nonzero"/><path fill="#ffffff" d="M 0 0.0585938 L 224.878906 0.0585938 L 224.878906 224.941406 L 0 224.941406 Z M 0 0.0585938 " fill-opacity="1" fill-rule="nonzero"/><path fill="#fdfbf9" d="M 0 0.0585938 L 224.878906 0.0585938 L 224.878906 224.941406 L 0 224.941406 Z M 0 0.0585938 " fill-opacity="1" fill-rule="nonzero"/></g><g clip-path="url(#59854f50a5)"><path fill="#cfeaf9" d="M 22.488281 199.589844 L 206.140625 199.589844 L 206.140625 91.089844 L 22.488281 91.089844 Z M 22.488281 199.589844 " fill-opacity="1" fill-rule="nonzero"/></g><g clip-path="url(#5c77a68741)"><path fill="#cfeaf9" d="M 83.71875 5.371094 L 83.71875 92.15625 L 22.488281 92.15625 C 22.488281 52.074219 48.050781 17.992188 83.71875 5.371094 Z M 83.71875 5.371094 " fill-opacity="1" fill-rule="nonzero"/></g><g clip-path="url(#60df224174)"><path fill="#cfeaf9" d="M 144.910156 92.15625 L 83.054688 92.15625 L 83.054688 5.628906 C 92.644531 2.242188 103.589844 0.144531 114.3125 0.144531 C 125.039062 0.144531 135.359375 1.984375 144.910156 5.371094 Z M 144.910156 92.15625 " fill-opacity="1" fill-rule="nonzero"/></g><g clip-path="url(#e2fed74a06)"><path fill="#cfeaf9" d="M 206.140625 92.15625 L 144.25 92.15625 L 144.25 5.148438 C 179.914062 17.773438 206.140625 52.074219 206.140625 92.15625 Z M 206.140625 92.15625 " fill-opacity="1" fill-rule="nonzero"/></g><g clip-path="url(#732efbd70e)"><path fill="#cfeaf9" d="M 22.488281 224.835938 L 206.140625 224.835938 L 206.140625 198.667969 L 22.488281 198.667969 Z M 22.488281 224.835938 " fill-opacity="1" fill-rule="nonzero"/></g><g clip-path="url(#f6f587c2c5)"><path fill="#ffffff" d="M 184.855469 215.066406 L 184.351562 224.878906 L 148.597656 224.878906 L 149.230469 215.066406 Z M 176.648438 172.039062 C 176.648438 172.039062 177.558594 156.007812 164.070312 139.402344 C 167.164062 124.054688 163.019531 103.496094 159.082031 100.472656 C 151.652344 100.90625 136.132812 106.34375 127.511719 120.019531 C 118.78125 116.910156 106.464844 116.089844 94.039062 119.191406 C 94.039062 119.191406 79.335938 103.75 62.09375 100.472656 C 53.726562 106.570312 56.347656 136.296875 56.261719 140.035156 C 50.429688 150.425781 28.367188 182.183594 64.628906 204.453125 C 59.808594 216.839844 57.894531 224.710938 57.894531 224.710938 L 147.289062 224.882812 C 147.289062 224.882812 148.941406 207.46875 150.714844 198.847656 C 152.492188 190.230469 154.140625 175.777344 157.9375 174.085938 C 161.734375 172.390625 164.699219 176.40625 164.699219 176.40625 C 164.699219 176.40625 168.988281 165.886719 172.339844 175.265625 C 171.375 171.71875 176.648438 172.039062 176.648438 172.039062 Z M 176.648438 172.039062 " fill-opacity="1" fill-rule="nonzero"/></g><path fill="#f8f1e8" d="M 153.035156 185.40625 C 155.824219 171.339844 161.53125 172.734375 164.699219 176.40625 C 165.207031 172.097656 169.769531 170.703125 172.433594 174.125 C 182.703125 163.988281 184.351562 194.070312 184.351562 194.070312 L 184.351562 213.542969 C 184.351562 213.542969 182.050781 221.023438 166.285156 221.023438 C 152.53125 221.023438 148.597656 214.9375 148.597656 214.9375 C 148.597656 214.9375 150.246094 199.476562 153.035156 185.40625 Z M 94.484375 119.375 C 91.441406 114.820312 71.855469 98.960938 62.347656 100.488281 C 51.570312 112.910156 56.769531 140.035156 56.769531 140.035156 C 56.769531 140.035156 47.867188 151.933594 46.808594 163.429688 C 47.152344 171.910156 70.210938 186.761719 96.578125 164.699219 C 121.628906 143.734375 101.457031 118.105469 101.457031 118.105469 C 101.457031 118.105469 98.035156 118.347656 94.484375 119.375 Z M 156.929688 107.839844 L 148.597656 124.738281 C 148.597656 124.738281 156.042969 130.90625 158.003906 136.230469 C 159.964844 131.160156 160.488281 118.234375 156.929688 107.839844 Z M 156.929688 107.839844 " fill-opacity="1" fill-rule="nonzero"/><g clip-path="url(#6b5af0184c)"><g mask="url(#110bbee3ac)"><g transform="matrix(1, 0, 0, 1, 44, 104)"><g clip-path="url(#b5898c97af)"><g clip-path="url(#11a2ce801e)"><path fill="#ff66ab" d="M 140.351562 120.878906 C 140.351562 120.878906 140.351562 120.878906 124.945312 120.878906 C 136.925781 119.796875 138.386719 87.492188 138.386719 87.492188 Z M 27.304688 20.738281 C 27.304688 20.738281 20.710938 7.050781 19.613281 3.839844 C 16.824219 10.597656 16.363281 27.5 18.539062 32.230469 C 22.816406 27.019531 27.304688 20.738281 27.304688 20.738281 Z M 103.359375 120.882812 C 104.769531 112.046875 106.703125 99.894531 108.261719 90.09375 C 108.253906 90.097656 108.246094 90.101562 108.242188 90.105469 L 109.835938 72.511719 C 109.734375 72.636719 109.605469 72.804688 109.445312 73.03125 C 108.238281 74.777344 105.503906 79.808594 103.296875 91.757812 C 94.242188 94.453125 82.320312 96.304688 66.625 96.414062 C 5.765625 95.996094 1.621094 69.316406 1.621094 69.316406 C 1.621094 69.316406 0.523438 72.914062 2.859375 78.789062 C 2.179688 78.214844 1.660156 77.757812 1.375 77.476562 C 3.167969 90.953125 20.710938 101.347656 20.710938 101.347656 L 13.894531 120.882812 C 13.894531 120.882812 21.050781 120.882812 28.828125 120.882812 C 33.558594 105.4375 39.28125 105.839844 39.28125 105.839844 C 51.191406 108.449219 62.632812 109.152344 66.625 109.152344 C 70.617188 109.152344 82.054688 108.449219 93.96875 105.839844 C 93.96875 105.839844 96.894531 105.636719 100.292969 111.164062 C 99.058594 119.035156 98.660156 120.875 98.660156 120.875 Z M 83.1875 16.019531 L 90.203125 18.035156 C 90.203125 18.035156 92.820312 8.609375 104.273438 0.648438 C 96.285156 2.824219 87.667969 8.59375 83.1875 16.019531 Z M 28.417969 0.648438 C 39.871094 8.609375 42.488281 18.035156 42.488281 18.035156 L 49.503906 16.019531 C 45.027344 8.59375 36.40625 2.824219 28.417969 0.648438 Z M 71.253906 74.90625 C 71.253906 74.90625 65.507812 76.222656 60.605469 74.761719 C 61.28125 80.394531 69.566406 80.898438 71.253906 74.90625 Z M 71.253906 74.90625 " fill-opacity="1" fill-rule="nonzero"/></g></g></g></g></g><g clip-path="url(#c60cd9e089)"><path fill="#ffffff" d="M 57.648438 116.890625 C 57.648438 116.890625 56.363281 134.546875 62.398438 142.992188 C 56.007812 147.636719 45.054688 162.726562 45.363281 175.015625 C 42.953125 167.03125 46.410156 153.378906 55.960938 141.175781 C 54.992188 133.949219 55.960938 124.007812 57.648438 116.890625 Z M 150.964844 208.1875 C 154.386719 182.804688 160.234375 175.035156 160.234375 175.035156 C 150.613281 172.4375 150.078125 196.898438 150.964844 208.1875 Z M 52.222656 191.492188 C 52.222656 191.492188 63.992188 202.265625 71.21875 203.40625 C 68.304688 207.082031 62.398438 224.882812 62.398438 224.882812 L 57.148438 224.882812 L 63.992188 204.925781 C 63.992188 204.925781 52.492188 199.230469 52.222656 191.492188 Z M 52.222656 191.492188 " fill-opacity="1" fill-rule="nonzero"/></g><g clip-path="url(#d798b5a48f)"><path fill="#ff66ab" d="M 186.25 224.878906 C 184.636719 224.878906 182.511719 224.878906 182.511719 224.878906 C 182.480469 218.707031 183.566406 186.804688 180.328125 176.054688 C 178.613281 170.363281 173.273438 173.085938 172.546875 177.820312 C 172.0625 175.445312 171.511719 172.886719 169.082031 173.140625 C 166.078125 173.453125 164.851562 178.757812 164.851562 178.757812 C 164.851562 178.757812 162.4375 174.890625 160.234375 175.035156 C 156.75 175.265625 154.457031 180.378906 152.785156 191.273438 C 151.847656 197.398438 149.429688 224.878906 149.429688 224.878906 L 146.320312 224.878906 C 146.320312 224.878906 148.03125 205.9375 148.578125 201.832031 L 148.59375 201.714844 L 149.035156 198.515625 C 150.039062 191.484375 151.152344 185.105469 152.230469 181.070312 C 155.027344 170.566406 161.378906 169.460938 164.238281 174.503906 C 165.707031 169.097656 172.082031 168.195312 172.753906 172.953125 C 172.964844 171.960938 173.957031 170.765625 175.351562 170.265625 C 174.796875 162.15625 171.246094 152.371094 162.6875 140.667969 C 164.558594 136.738281 166.554688 118.25 158.699219 102.007812 C 154.726562 102.007812 141.417969 105.261719 128.570312 119.222656 C 130.75 119.980469 132.804688 120.902344 134.527344 122.035156 C 133.992188 122.054688 122.257812 118.726562 110.523438 118.726562 C 98.789062 118.726562 87.054688 122.054688 86.519531 122.035156 C 88.242188 120.902344 90.292969 119.980469 92.476562 119.222656 C 79.628906 105.261719 66.320312 102.007812 62.347656 102.007812 C 54.488281 118.25 56.484375 136.738281 58.355469 140.667969 C 27.355469 183.070312 62.035156 200.25 66.972656 204.101562 C 64.183594 209.804688 59.050781 224.878906 59.050781 224.878906 L 55.605469 224.878906 C 55.605469 224.878906 58.9375 214.375 62.992188 204.996094 C 32.046875 186.804688 42.0625 157.015625 54.738281 141.175781 C 50.9375 118.742188 58.796875 99.472656 61.839844 98.960938 C 82 102.816406 92.300781 114.828125 95 118.4375 C 98.621094 117.421875 104.570312 115.941406 110.523438 115.9375 C 116.46875 115.9375 122.414062 117.417969 126.046875 118.4375 C 128.742188 114.828125 139.042969 102.816406 159.207031 98.960938 C 162.25 99.472656 170.109375 118.742188 166.304688 141.175781 C 172.320312 148.691406 177.734375 159.351562 178.457031 170.417969 C 179.5 170.878906 180.601562 171.78125 181.679688 173.324219 C 183.695312 176.207031 184.003906 179.921875 184.953125 187.40625 C 185.832031 194.3125 186.25 220.800781 186.25 224.878906 Z M 156.929688 107.839844 C 156.929688 107.839844 151.148438 116.023438 146.902344 124.730469 C 149.75 126.597656 155.609375 132.679688 158.003906 136.230469 C 159.132812 134.203125 153.277344 125.605469 150.296875 123.9375 C 153.398438 120.640625 156.929688 107.839844 156.929688 107.839844 Z M 63.613281 107.839844 C 63.613281 107.839844 69.394531 116.023438 73.644531 124.730469 C 70.792969 126.597656 64.933594 132.679688 62.539062 136.230469 C 61.410156 134.203125 67.265625 125.605469 70.25 123.9375 C 67.144531 120.640625 63.613281 107.839844 63.613281 107.839844 Z M 79.742188 148.800781 C 73.289062 150.324219 68.914062 156.761719 67.582031 162.101562 C 67.378906 162.914062 67.816406 163.558594 68.722656 163.785156 C 70.1875 164.152344 72.851562 163.40625 73.242188 161.835938 C 73.753906 159.785156 74.625 157.921875 75.832031 156.304688 C 76.742188 155.082031 78.515625 152.972656 80.1875 152.554688 C 81.535156 152.21875 82.820312 154.417969 83.511719 155.597656 L 83.675781 155.875 C 84.859375 157.871094 85.816406 160.1875 86.519531 162.753906 C 86.765625 163.65625 87.648438 164.011719 88.625 164.011719 C 89.035156 164.011719 89.460938 163.949219 89.863281 163.839844 C 91.507812 163.390625 92.445312 162.324219 92.148438 161.242188 C 89.566406 151.796875 85.277344 147.496094 79.742188 148.800781 Z M 152.957031 161.242188 C 150.371094 151.796875 146.082031 147.496094 140.546875 148.800781 C 134.09375 150.324219 129.722656 156.761719 128.386719 162.101562 C 128.265625 162.59375 128.378906 163.042969 128.710938 163.367188 C 129.410156 164.039062 130.800781 163.949219 131.78125 163.667969 C 133.003906 163.320312 133.851562 162.632812 134.046875 161.835938 C 134.5625 159.785156 135.433594 157.921875 136.636719 156.304688 C 137.546875 155.082031 139.320312 152.972656 140.996094 152.554688 C 142.339844 152.21875 143.625 154.417969 144.316406 155.597656 L 144.480469 155.875 C 145.664062 157.871094 146.621094 160.1875 147.324219 162.757812 C 147.480469 163.328125 147.933594 163.738281 148.605469 163.914062 C 148.863281 163.984375 149.140625 164.015625 149.433594 164.015625 C 150.523438 164.015625 151.761719 163.570312 152.453125 162.875 C 152.933594 162.390625 153.109375 161.8125 152.957031 161.242188 Z M 119.628906 164.085938 C 118.941406 164.449219 118.617188 165.625 119.289062 166.882812 C 119.675781 167.613281 119.261719 168.367188 118.980469 168.75 C 118.242188 169.757812 116.914062 170.371094 115.894531 170.179688 C 114.136719 169.851562 113.082031 167.785156 112.355469 166.023438 C 112.015625 165.203125 111.304688 164.691406 110.5 164.691406 C 109.695312 164.691406 108.984375 165.203125 108.644531 166.023438 C 108.050781 167.46875 106.941406 170.160156 105.105469 170.503906 C 104.328125 170.648438 103.355469 170.273438 102.578125 169.527344 C 101.429688 168.371094 101.773438 166.863281 101.898438 166.457031 C 101.910156 166.421875 101.917969 166.390625 101.933594 166.347656 L 102.199219 165.636719 L 102.066406 165.636719 C 102.101562 164.894531 101.804688 164.257812 101.269531 164.039062 C 100.8125 163.855469 100.140625 163.996094 99.632812 164.953125 C 98.683594 166.730469 98.632812 168.847656 99.492188 170.609375 C 100.289062 172.25 101.792969 173.375 103.613281 173.699219 C 106.226562 174.164062 108.597656 173.058594 110.5 170.503906 C 112.121094 172.679688 114.078125 173.800781 116.234375 173.800781 C 116.613281 173.800781 116.996094 173.765625 117.386719 173.699219 C 119.207031 173.375 120.710938 172.25 121.507812 170.609375 C 122.367188 168.847656 122.316406 166.730469 121.367188 164.953125 C 120.816406 163.921875 120.085938 163.839844 119.628906 164.085938 Z M 119.628906 164.085938 " fill-opacity="1" fill-rule="nonzero"/></g><path fill="#ff66ab" d="M 168.460938 189.632812 C 167.511719 188.566406 163.722656 185.675781 161.285156 190.390625 C 158.847656 195.105469 165.496094 199.820312 168.460938 199.820312 C 171.421875 199.820312 178.074219 195.105469 175.636719 190.390625 C 173.199219 185.675781 169.40625 188.566406 168.460938 189.632812 Z M 170.785156 181.6875 C 170.785156 180.25 169.960938 179.082031 168.945312 179.082031 C 167.929688 179.082031 167.105469 180.25 167.105469 181.6875 C 167.105469 183.128906 167.929688 184.292969 168.945312 184.292969 C 169.960938 184.292969 170.785156 183.128906 170.785156 181.6875 Z M 176.488281 180.648438 C 175.457031 180.492188 174.425781 181.453125 174.183594 182.792969 C 173.945312 184.132812 174.582031 185.347656 175.613281 185.503906 C 176.644531 185.660156 177.675781 184.699219 177.917969 183.359375 C 178.160156 182.019531 177.519531 180.804688 176.488281 180.648438 Z M 161.621094 185.632812 C 162.664062 185.332031 163.125 184 162.65625 182.664062 C 162.183594 181.324219 160.957031 180.484375 159.914062 180.785156 C 158.875 181.089844 158.410156 182.417969 158.882812 183.757812 C 159.355469 185.09375 160.582031 185.933594 161.621094 185.632812 Z M 161.621094 185.632812 " fill-opacity="1" fill-rule="nonzero"/></svg>